<?xml version="1.0" encoding="us-ascii" standalone="no"?><svg xmlns="http://www.w3.org/2000/svg" xmlns:xlink="http://www.w3.org/1999/xlink" contentStyleType="text/css" height="495px" preserveAspectRatio="none" style="width:2085px;height:495px;background:#FFFFFF;" version="1.1" viewBox="0 0 2085 495" width="2085px" zoomAndPan="magnify"><defs/><g><!--cluster app--><g id="cluster_app"><rect fill="none" height="371" rx="2.5" ry="2.5" style="stroke:#181818;stroke-width:1.0;" width="2072" x="7" y="7"/><path d="M43,7 L43,16.4883 L33,26.4883 L7,26.4883 " fill="none" style="stroke:#181818;stroke-width:1.0;"/><text fill="#000000" font-family="sans-serif" font-size="14" font-weight="bold" lengthAdjust="spacing" textLength="26" x="10" y="21.5352">app</text></g><!--cluster custom-library--><g id="cluster_custom-library"><rect fill="none" height="87" rx="2.5" ry="2.5" style="stroke:#181818;stroke-width:1.0;" width="142" x="804" y="402"/><path d="M923,402 L923,411.4883 L913,421.4883 L804,421.4883 " fill="none" style="stroke:#181818;stroke-width:1.0;"/><text fill="#000000" font-family="sans-serif" font-size="14" font-weight="bold" lengthAdjust="spacing" textLength="109" x="807" y="416.5352">custom-library</text></g><!--entity Root.js--><g id="elem_Root.js"><rect fill="#F1F1F1" height="36.4883" rx="2.5" ry="2.5" style="stroke:#181818;stroke-width:0.5;" width="67" x="155" y="231.76"/><text fill="#000000" font-family="sans-serif" font-size="14" lengthAdjust="spacing" textLength="47" x="165" y="255.2952">Root.js</text></g><!--entity components/Application/ApplicationMobile.tsx--><g id="elem_components/Application/ApplicationMobile.tsx"><rect fill="#F1F1F1" height="36.4883" rx="2.5" ry="2.5" style="stroke:#181818;stroke-width:0.5;" width="346" x="287.5" y="204.76"/><text fill="#000000" font-family="sans-serif" font-size="14" lengthAdjust="spacing" textLength="326" x="297.5" y="228.2952">components/Application/ApplicationMobile.tsx</text></g><!--entity components/Application/ApplicationProvider.tsx--><g id="elem_components/Application/ApplicationProvider.tsx"><rect fill="#F1F1F1" height="36.4883" rx="2.5" ry="2.5" style="stroke:#181818;stroke-width:0.5;" width="357" x="282" y="133.76"/><text fill="#000000" font-family="sans-serif" font-size="14" lengthAdjust="spacing" textLength="337" x="292" y="157.2952">components/Application/ApplicationProvider.tsx</text></g><!--entity components/Application/PassedToProps.tsx--><g id="elem_components/Application/PassedToProps.tsx"><rect fill="#F1F1F1" height="36.4883" rx="2.5" ry="2.5" style="stroke:#181818;stroke-width:0.5;" width="326" x="297.5" y="62.76"/><text fill="#000000" font-family="sans-serif" font-size="14" lengthAdjust="spacing" textLength="306" x="307.5" y="86.2952">components/Application/PassedToProps.tsx</text></g><!--entity components/Portal/index.tsx--><g id="elem_components/Portal/index.tsx"><rect fill="#F1F1F1" height="36.4883" rx="2.5" ry="2.5" style="stroke:#181818;stroke-width:0.5;" width="223" x="1246.5" y="254.76"/><text fill="#000000" font-family="sans-serif" font-size="14" lengthAdjust="spacing" textLength="203" x="1256.5" y="278.2952">components/Portal/index.tsx</text></g><!--entity components/Application/Application.tsx--><g id="elem_components/Application/Application.tsx"><rect fill="#F1F1F1" height="36.4883" rx="2.5" ry="2.5" style="stroke:#181818;stroke-width:0.5;" width="300" x="310.5" y="319.76"/><text fill="#000000" font-family="sans-serif" font-size="14" lengthAdjust="spacing" textLength="280" x="320.5" y="343.2952">components/Application/Application.tsx</text></g><!--entity components/Thumbnails/ThumbnailsMobile.tsx--><g id="elem_components/Thumbnails/ThumbnailsMobile.tsx"><rect fill="#F1F1F1" height="36.4883" rx="2.5" ry="2.5" style="stroke:#181818;stroke-width:0.5;" width="352" x="699" y="86.76"/><text fill="#000000" font-family="sans-serif" font-size="14" lengthAdjust="spacing" textLength="332" x="709" y="110.2952">components/Thumbnails/ThumbnailsMobile.tsx</text></g><!--entity components/Modals/Modals.tsx--><g id="elem_components/Modals/Modals.tsx"><rect fill="#F1F1F1" height="36.4883" rx="2.5" ry="2.5" style="stroke:#181818;stroke-width:0.5;" width="242" x="754" y="204.76"/><text fill="#000000" font-family="sans-serif" font-size="14" lengthAdjust="spacing" textLength="222" x="764" y="228.2952">components/Modals/Modals.tsx</text></g><!--entity components/Thumbnails/Thumbnails.tsx--><g id="elem_components/Thumbnails/Thumbnails.tsx"><rect fill="#F1F1F1" height="36.4883" rx="2.5" ry="2.5" style="stroke:#181818;stroke-width:0.5;" width="306" x="722" y="324.76"/><text fill="#000000" font-family="sans-serif" font-size="14" lengthAdjust="spacing" textLength="286" x="732" y="348.2952">components/Thumbnails/Thumbnails.tsx</text></g><!--entity components/Modals/PageDeletingWarning/PageDeletingWarning.tsx--><g id="elem_components/Modals/PageDeletingWarning/PageDeletingWarning.tsx"><rect fill="#F1F1F1" height="36.4883" rx="2.5" ry="2.5" style="stroke:#181818;stroke-width:0.5;" width="494" x="1111" y="183.76"/><text fill="#000000" font-family="sans-serif" font-size="14" lengthAdjust="spacing" textLength="474" x="1121" y="207.2952">components/Modals/PageDeletingWarning/PageDeletingWarning.tsx</text></g><!--entity components/Modals/Attachment/Attachment.tsx--><g id="elem_components/Modals/Attachment/Attachment.tsx"><rect fill="#F1F1F1" height="36.4883" rx="2.5" ry="2.5" style="stroke:#181818;stroke-width:0.5;" width="358" x="1179" y="112.76"/><text fill="#000000" font-family="sans-serif" font-size="14" lengthAdjust="spacing" textLength="338" x="1189" y="136.2952">components/Modals/Attachment/Attachment.tsx</text></g><!--entity components/Thumbnails/ThumbnailsFooter.tsx--><g id="elem_components/Thumbnails/ThumbnailsFooter.tsx"><rect fill="#F1F1F1" height="36.4883" rx="2.5" ry="2.5" style="stroke:#181818;stroke-width:0.5;" width="351" x="1182.5" y="325.76"/><text fill="#000000" font-family="sans-serif" font-size="14" lengthAdjust="spacing" textLength="331" x="1192.5" y="349.2952">components/Thumbnails/ThumbnailsFooter.tsx</text></g><!--entity components/Thumbnails/ThumbnailsMobileFooter.tsx--><g id="elem_components/Thumbnails/ThumbnailsMobileFooter.tsx"><rect fill="#F1F1F1" height="36.4883" rx="2.5" ry="2.5" style="stroke:#181818;stroke-width:0.5;" width="397" x="1159.5" y="41.76"/><text fill="#000000" font-family="sans-serif" font-size="14" lengthAdjust="spacing" textLength="377" x="1169.5" y="65.2952">components/Thumbnails/ThumbnailsMobileFooter.tsx</text></g><!--entity components/Modals/Attachment/Desktop/Desktop.tsx--><g id="elem_components/Modals/Attachment/Desktop/Desktop.tsx"><rect fill="#F1F1F1" height="36.4883" rx="2.5" ry="2.5" style="stroke:#181818;stroke-width:0.5;" width="398" x="1665" y="112.76"/><text fill="#000000" font-family="sans-serif" font-size="14" lengthAdjust="spacing" textLength="378" x="1675" y="136.2952">components/Modals/Attachment/Desktop/Desktop.tsx</text></g><!--entity client.js--><g id="elem_client.js"><rect fill="#F1F1F1" height="36.4883" rx="2.5" ry="2.5" style="stroke:#181818;stroke-width:0.5;" width="72" x="23" y="231.76"/><text fill="#000000" font-family="sans-serif" font-size="14" lengthAdjust="spacing" textLength="52" x="33" y="255.2952">client.js</text></g><!--entity Grid/Grid.tsx--><g id="elem_Grid/Grid.tsx"><rect fill="#F1F1F1" height="36.4883" rx="2.5" ry="2.5" style="stroke:#181818;stroke-width:0.5;" width="110" x="820" y="436.76"/><text fill="#000000" font-family="sans-serif" font-size="14" lengthAdjust="spacing" textLength="90" x="830" y="460.2952">Grid/Grid.tsx</text></g><!--entity /Test.tsx--><g id="elem_/Test.tsx"><rect fill="#F1F1F1" height="36.4883" rx="2.5" ry="2.5" style="stroke:#181818;stroke-width:0.5;" width="81" x="420" y="393.76"/><text fill="#000000" font-family="sans-serif" font-size="14" lengthAdjust="spacing" textLength="61" x="430" y="417.2952">/Test.tsx</text></g><!--link Root.js to /Test.tsx--><g id="link_Root.js_/Test.tsx"><path d="M197.45,268.71 C210.6,297.22 239.68,351.05 282,378 C323.81,404.63 375.6332,411.145 413.7632,412.385 " fill="none" id="Root.js-to-/Test.tsx" style="stroke:#006400;stroke-width:1.0;"/><polygon fill="#006400" points="419.76,412.58,410.8948,408.2896,414.7626,412.4175,410.6347,416.2854,419.76,412.58" style="stroke:#006400;stroke-width:1.0;"/></g><!--link Root.js to components/Application/ApplicationMobile.tsx--><g id="link_Root.js_components/Application/ApplicationMobile.tsx"><path d="M222.34,246.72 C239.69,244.98 256.5098,243.2975 281.0898,240.8375 " fill="none" id="Root.js-to-components/Application/ApplicationMobile.tsx" style="stroke:#000000;stroke-width:1.0;"/><polygon fill="#000000" points="287.06,240.24,277.7064,237.1561,282.0849,240.7379,278.5031,245.1164,287.06,240.24" style="stroke:#000000;stroke-width:1.0;"/></g><!--link Root.js to components/Application/ApplicationProvider.tsx--><g id="link_Root.js_components/Application/ApplicationProvider.tsx"><path d="M211.2,231.46 C229.06,217.16 255.65,198.03 282,187 C297.79,180.39 309.0856,176.4907 326.2456,172.1207 " fill="none" id="Root.js-to-components/Application/ApplicationProvider.tsx" style="stroke:#0000FF;stroke-width:1.0;"/><polygon fill="#0000FF" points="332.06,170.64,322.3512,168.9848,327.2146,171.8739,324.3255,176.7373,332.06,170.64" style="stroke:#0000FF;stroke-width:1.0;"/></g><!--link Root.js to components/Application/PassedToProps.tsx--><g id="link_Root.js_components/Application/PassedToProps.tsx"><path d="M196.81,231.42 C209.44,201.89 238.27,144.69 282,116 C291.98,109.45 297.316,106.2497 308.686,101.8397 " fill="none" id="Root.js-to-components/Application/PassedToProps.tsx" style="stroke:#8A2BE2;stroke-width:1.0;"/><polygon fill="#8A2BE2" points="314.28,99.67,304.4426,99.1952,309.6184,101.4781,307.3355,106.6538,314.28,99.67" style="stroke:#8A2BE2;stroke-width:1.0;"/></g><!--link Root.js to components/Portal/index.tsx--><g id="link_Root.js_components/Portal/index.tsx"><path d="M222.41,253.88 C240.06,255.79 262.18,257.91 282,259 C633.76,278.37 1045.2004,276.8567 1240.2504,274.6867 " fill="none" id="Root.js-to-components/Portal/index.tsx" style="stroke:#A52A2A;stroke-width:1.0;"/><polygon fill="#A52A2A" points="1246.25,274.62,1237.2061,270.7204,1241.2503,274.6756,1237.2951,278.7199,1246.25,274.62" style="stroke:#A52A2A;stroke-width:1.0;"/></g><!--link Root.js to components/Application/Application.tsx--><g id="link_Root.js_components/Application/Application.tsx"><path d="M222.21,263.52 C239.8,270.59 261.93,279.17 282,286 C317.57,298.11 351.9261,308.3785 385.0161,317.7285 " fill="none" id="Root.js-to-components/Application/Application.tsx" style="stroke:#DEB887;stroke-width:1.0;"/><polygon fill="#DEB887" points="390.79,319.36,383.2168,313.0635,385.9784,318.0004,381.0414,320.762,390.79,319.36" style="stroke:#DEB887;stroke-width:1.0;"/></g><!--link components/Application/ApplicationMobile.tsx to components/Thumbnails/ThumbnailsMobile.tsx--><g id="link_components/Application/ApplicationMobile.tsx_components/Thumbnails/ThumbnailsMobile.tsx"><path d="M569.56,204.29 C592.62,199.57 616.73,194.09 639,188 C705.57,169.78 774.8203,144.2307 821.7803,125.9107 " fill="none" id="components/Application/ApplicationMobile.tsx-to-components/Thumbnails/ThumbnailsMobile.tsx" style="stroke:#006400;stroke-width:1.0;"/><polygon fill="#006400" points="827.37,123.73,817.5317,123.2745,822.7119,125.5472,820.4392,130.7274,827.37,123.73" style="stroke:#006400;stroke-width:1.0;"/></g><!--link components/Application/ApplicationMobile.tsx to components/Modals/Modals.tsx--><g id="link_components/Application/ApplicationMobile.tsx_components/Modals/Modals.tsx"><path d="M633.75,223 C674.07,223 710.17,223 747.66,223 " fill="none" id="components/Application/ApplicationMobile.tsx-to-components/Modals/Modals.tsx" style="stroke:#000000;stroke-width:1.0;"/><polygon fill="#000000" points="753.66,223,744.66,219,748.66,223,744.66,227,753.66,223" style="stroke:#000000;stroke-width:1.0;"/></g><!--link components/Application/Application.tsx to components/Modals/Modals.tsx--><g id="link_components/Application/Application.tsx_components/Modals/Modals.tsx"><path d="M528.69,319.27 C605.4,297.88 724.3605,264.7218 801.0605,243.3318 " fill="none" id="components/Application/Application.tsx-to-components/Modals/Modals.tsx" style="stroke:#006400;stroke-width:1.0;"/><polygon fill="#006400" points="806.84,241.72,797.0963,240.2847,802.0238,243.0631,799.2453,247.9906,806.84,241.72" style="stroke:#006400;stroke-width:1.0;"/></g><!--link components/Application/Application.tsx to components/Thumbnails/Thumbnails.tsx--><g id="link_components/Application/Application.tsx_components/Thumbnails/Thumbnails.tsx"><path d="M610.71,339.81 C646.81,340.25 679.4404,340.6372 715.6804,341.0772 " fill="none" id="components/Application/Application.tsx-to-components/Thumbnails/Thumbnails.tsx" style="stroke:#000000;stroke-width:1.0;"/><polygon fill="#000000" points="721.68,341.15,712.7292,337.041,716.6804,341.0893,712.6321,345.0404,721.68,341.15" style="stroke:#000000;stroke-width:1.0;"/></g><!--link components/Application/Application.tsx to Grid/Grid.tsx--><g id="link_components/Application/Application.tsx_Grid/Grid.tsx"><path d="M558.71,356.73 C584.92,362.35 613.17,368.92 639,376 C703.76,393.75 771.2212,417.1596 818.4412,434.3296 " fill="none" id="components/Application/Application.tsx-to-Grid/Grid.tsx" style="stroke:#0000FF;stroke-width:1.0;"/><polygon fill="#0000FF" points="824.08,436.38,816.9887,429.5453,819.381,434.6714,814.2549,437.0637,824.08,436.38" style="stroke:#0000FF;stroke-width:1.0;"/></g><!--link components/Modals/Modals.tsx to components/Portal/index.tsx--><g id="link_components/Modals/Modals.tsx_components/Portal/index.tsx"><path d="M996.45,235.52 C1073.11,243.49 1165.6922,253.1092 1240.3822,260.8792 " fill="none" id="components/Modals/Modals.tsx-to-components/Portal/index.tsx" style="stroke:#006400;stroke-width:1.0;"/><polygon fill="#006400" points="1246.35,261.5,1237.8122,256.5902,1241.3768,260.9826,1236.9844,264.5473,1246.35,261.5" style="stroke:#006400;stroke-width:1.0;"/></g><!--link components/Modals/Modals.tsx to components/Modals/PageDeletingWarning/PageDeletingWarning.tsx--><g id="link_components/Modals/Modals.tsx_components/Modals/PageDeletingWarning/PageDeletingWarning.tsx"><path d="M996.45,217.74 C1031.37,216.22 1064.8357,214.7513 1104.5257,213.0213 " fill="none" id="components/Modals/Modals.tsx-to-components/Modals/PageDeletingWarning/PageDeletingWarning.tsx" style="stroke:#000000;stroke-width:1.0;"/><polygon fill="#000000" points="1110.52,212.76,1101.3544,209.1557,1105.5247,212.9777,1101.7027,217.1481,1110.52,212.76" style="stroke:#000000;stroke-width:1.0;"/></g><!--link components/Modals/Modals.tsx to components/Modals/Attachment/Attachment.tsx--><g id="link_components/Modals/Modals.tsx_components/Modals/Attachment/Attachment.tsx"><path d="M945.54,204.26 C992.11,192.18 1054.93,176.76 1111,166 C1142.56,159.94 1170.6535,155.3209 1203.0335,150.5709 " fill="none" id="components/Modals/Modals.tsx-to-components/Modals/Attachment/Attachment.tsx" style="stroke:#0000FF;stroke-width:1.0;"/><polygon fill="#0000FF" points="1208.97,149.7,1199.4847,147.0486,1204.0229,150.4257,1200.6459,154.9639,1208.97,149.7" style="stroke:#0000FF;stroke-width:1.0;"/></g><!--link components/Thumbnails/Thumbnails.tsx to components/Thumbnails/ThumbnailsFooter.tsx--><g id="link_components/Thumbnails/Thumbnails.tsx_components/Thumbnails/ThumbnailsFooter.tsx"><path d="M1028.19,343.32 C1077.18,343.42 1125.85,343.5169 1176.33,343.6269 " fill="none" id="components/Thumbnails/Thumbnails.tsx-to-components/Thumbnails/ThumbnailsFooter.tsx" style="stroke:#006400;stroke-width:1.0;"/><polygon fill="#006400" points="1182.33,343.64,1173.3387,339.6204,1177.33,343.6291,1173.3213,347.6204,1182.33,343.64" style="stroke:#006400;stroke-width:1.0;"/></g><!--link components/Thumbnails/ThumbnailsMobile.tsx to components/Thumbnails/ThumbnailsMobileFooter.tsx--><g id="link_components/Thumbnails/ThumbnailsMobile.tsx_components/Thumbnails/ThumbnailsMobileFooter.tsx"><path d="M1051.35,88.59 C1086.39,85.32 1117.446,82.4083 1153.186,79.0683 " fill="none" id="components/Thumbnails/ThumbnailsMobile.tsx-to-components/Thumbnails/ThumbnailsMobileFooter.tsx" style="stroke:#006400;stroke-width:1.0;"/><polygon fill="#006400" points="1159.16,78.51,1149.8269,75.3648,1154.1817,78.9752,1150.5712,83.3301,1159.16,78.51" style="stroke:#006400;stroke-width:1.0;"/></g><!--link components/Modals/Attachment/Attachment.tsx to components/Modals/Attachment/Desktop/Desktop.tsx--><g id="link_components/Modals/Attachment/Attachment.tsx_components/Modals/Attachment/Desktop/Desktop.tsx"><path d="M1537.4,131 C1578.6,131 1616.68,131 1658.68,131 " fill="none" id="components/Modals/Attachment/Attachment.tsx-to-components/Modals/Attachment/Desktop/Desktop.tsx" style="stroke:#006400;stroke-width:1.0;"/><polygon fill="#006400" points="1664.68,131,1655.68,127,1659.68,131,1655.68,135,1664.68,131" style="stroke:#006400;stroke-width:1.0;"/></g><!--link client.js to Root.js--><g id="link_client.js_Root.js"><path d="M95.18,250 C113.75,250 130.41,250 148.63,250 " fill="none" id="client.js-to-Root.js" style="stroke:#006400;stroke-width:1.0;"/><polygon fill="#006400" points="154.63,250,145.63,246,149.63,250,145.63,254,154.63,250" style="stroke:#006400;stroke-width:1.0;"/></g><!--SRC=[fPHDRy8m38Rl_HNHTePMrJuuJIe2TaAg9gGT48VGXf8jJQeaJ4mJ_ttDH4T8FvAM7fh8YXyxZbyJj9D0Ci1njfSWnHmb4ZFgxJZC4RY3HN47VZm0b1tIZ9IsDyRa-4Ce-ydJx0dB2qOHbSAFYeBW12gIlb-oBIPeBCLnW7FCsHTE4U_Z7aCXKBfYfMyXR8unun8I7zCK7GVcQ7DRxG_vba9CzArRLPOiXQHQ1iLnZ1333CqGGHBJx1roMYvDDaTQ92LCzdbfqhQ3qb-KRMT__OuAkm7gUS-G-9IigDPc0C7gNfKgF72g59GSX6JvYE0jX_ox9gPNZbDV_IvOvQoTy5T8Q1LRd-Mt0QFrVH0yFGJ1PlG2rl_7DkOHzVqTwIFG1ifYuKZHbMfm9b4udOTTd9fa3KBq64PXP19CxHfEi_bqCdbsJF_itwjQncEuItvOeAOdhGq89xGb-vkXJPcsJgV-y7DFNgdecbA_GVjj6xh8WTJn63rcgMkikWfja_QQt5xydZry6QSE0MwLIbimwzsjhTqzw5MqQhIRh6h0_080]--></g></svg>