<?xml version="1.0" encoding="us-ascii" standalone="no"?><svg xmlns="http://www.w3.org/2000/svg" xmlns:xlink="http://www.w3.org/1999/xlink" contentStyleType="text/css" height="404px" preserveAspectRatio="none" style="width:2481px;height:404px;background:#FFFFFF;" version="1.1" viewBox="0 0 2481 404" width="2481px" zoomAndPan="magnify"><defs/><g><!--entity /app/Root.js--><g id="elem_/app/Root.js"><rect fill="#F1F1F1" height="36.4883" rx="2.5" ry="2.5" style="stroke:#181818;stroke-width:0.5;" width="107" x="179" y="220"/><text fill="#000000" font-family="sans-serif" font-size="14" lengthAdjust="spacing" textLength="87" x="189" y="243.5352">/app/Root.js</text></g><!--entity /app/components/Application/ApplicationMobile.tsx--><g id="elem_/app/components/Application/ApplicationMobile.tsx"><rect fill="#F1F1F1" height="36.4883" rx="2.5" ry="2.5" style="stroke:#181818;stroke-width:0.5;" width="386" x="351.5" y="220"/><text fill="#000000" font-family="sans-serif" font-size="14" lengthAdjust="spacing" textLength="366" x="361.5" y="243.5352">/app/components/Application/ApplicationMobile.tsx</text></g><!--entity /app/components/Application/ApplicationProvider.tsx--><g id="elem_/app/components/Application/ApplicationProvider.tsx"><rect fill="#F1F1F1" height="36.4883" rx="2.5" ry="2.5" style="stroke:#181818;stroke-width:0.5;" width="397" x="346" y="291"/><text fill="#000000" font-family="sans-serif" font-size="14" lengthAdjust="spacing" textLength="377" x="356" y="314.5352">/app/components/Application/ApplicationProvider.tsx</text></g><!--entity /app/components/Application/PassedToProps.tsx--><g id="elem_/app/components/Application/PassedToProps.tsx"><rect fill="#F1F1F1" height="36.4883" rx="2.5" ry="2.5" style="stroke:#181818;stroke-width:0.5;" width="366" x="361.5" y="362"/><text fill="#000000" font-family="sans-serif" font-size="14" lengthAdjust="spacing" textLength="346" x="371.5" y="385.5352">/app/components/Application/PassedToProps.tsx</text></g><!--entity /app/components/Portal/index.tsx--><g id="elem_/app/components/Portal/index.tsx"><rect fill="#F1F1F1" height="36.4883" rx="2.5" ry="2.5" style="stroke:#181818;stroke-width:0.5;" width="263" x="1484.5" y="149"/><text fill="#000000" font-family="sans-serif" font-size="14" lengthAdjust="spacing" textLength="243" x="1494.5" y="172.5352">/app/components/Portal/index.tsx</text></g><!--entity /app/components/Application/Application.tsx--><g id="elem_/app/components/Application/Application.tsx"><rect fill="#F1F1F1" height="36.4883" rx="2.5" ry="2.5" style="stroke:#181818;stroke-width:0.5;" width="340" x="374.5" y="78"/><text fill="#000000" font-family="sans-serif" font-size="14" lengthAdjust="spacing" textLength="320" x="384.5" y="101.5352">/app/components/Application/Application.tsx</text></g><!--entity /app/components/Modals/Modals.tsx--><g id="elem_/app/components/Modals/Modals.tsx"><rect fill="#F1F1F1" height="36.4883" rx="2.5" ry="2.5" style="stroke:#181818;stroke-width:0.5;" width="282" x="858" y="220"/><text fill="#000000" font-family="sans-serif" font-size="14" lengthAdjust="spacing" textLength="262" x="868" y="243.5352">/app/components/Modals/Modals.tsx</text></g><!--entity /app/components/Thumbnails/ThumbnailsMobile.tsx--><g id="elem_/app/components/Thumbnails/ThumbnailsMobile.tsx"><rect fill="#F1F1F1" height="36.4883" rx="2.5" ry="2.5" style="stroke:#181818;stroke-width:0.5;" width="392" x="803" y="327"/><text fill="#000000" font-family="sans-serif" font-size="14" lengthAdjust="spacing" textLength="372" x="813" y="350.5352">/app/components/Thumbnails/ThumbnailsMobile.tsx</text></g><!--entity /app/components/Thumbnails/Thumbnails.tsx--><g id="elem_/app/components/Thumbnails/Thumbnails.tsx"><rect fill="#F1F1F1" height="36.4883" rx="2.5" ry="2.5" style="stroke:#181818;stroke-width:0.5;" width="346" x="826" y="7"/><text fill="#000000" font-family="sans-serif" font-size="14" lengthAdjust="spacing" textLength="326" x="836" y="30.5352">/app/components/Thumbnails/Thumbnails.tsx</text></g><!--entity /custom-library/Grid/Grid.tsx--><g id="elem_/custom-library/Grid/Grid.tsx"><rect fill="#F1F1F1" height="36.4883" rx="2.5" ry="2.5" style="stroke:#181818;stroke-width:0.5;" width="226" x="886" y="78"/><text fill="#000000" font-family="sans-serif" font-size="14" lengthAdjust="spacing" textLength="206" x="896" y="101.5352">/custom-library/Grid/Grid.tsx</text></g><!--entity /app/components/Thumbnails/ThumbnailsFooter.tsx--><g id="elem_/app/components/Thumbnails/ThumbnailsFooter.tsx"><rect fill="#F1F1F1" height="36.4883" rx="2.5" ry="2.5" style="stroke:#181818;stroke-width:0.5;" width="391" x="1420.5" y="7"/><text fill="#000000" font-family="sans-serif" font-size="14" lengthAdjust="spacing" textLength="371" x="1430.5" y="30.5352">/app/components/Thumbnails/ThumbnailsFooter.tsx</text></g><!--entity /app/components/Thumbnails/ThumbnailsMobileFooter.tsx--><g id="elem_/app/components/Thumbnails/ThumbnailsMobileFooter.tsx"><rect fill="#F1F1F1" height="36.4883" rx="2.5" ry="2.5" style="stroke:#181818;stroke-width:0.5;" width="437" x="1397.5" y="362"/><text fill="#000000" font-family="sans-serif" font-size="14" lengthAdjust="spacing" textLength="417" x="1407.5" y="385.5352">/app/components/Thumbnails/ThumbnailsMobileFooter.tsx</text></g><!--entity /app/components/Modals/PageDeletingWarningModalProvider/PageDeletingWarningModalProvider.js--><g id="elem_/app/components/Modals/PageDeletingWarningModalProvider/PageDeletingWarningModalProvider.js"><rect fill="#F1F1F1" height="36.4883" rx="2.5" ry="2.5" style="stroke:#181818;stroke-width:0.5;" width="722" x="1255" y="291"/><text fill="#000000" font-family="sans-serif" font-size="14" lengthAdjust="spacing" textLength="702" x="1265" y="314.5352">/app/components/Modals/PageDeletingWarningModalProvider/PageDeletingWarningModalProvider.js</text></g><!--entity /app/components/Modals/Attachment/Attachment.tsx--><g id="elem_/app/components/Modals/Attachment/Attachment.tsx"><rect fill="#F1F1F1" height="36.4883" rx="2.5" ry="2.5" style="stroke:#181818;stroke-width:0.5;" width="398" x="1417" y="220"/><text fill="#000000" font-family="sans-serif" font-size="14" lengthAdjust="spacing" textLength="378" x="1427" y="243.5352">/app/components/Modals/Attachment/Attachment.tsx</text></g><!--entity /app/components/Modals/Attachment/Desktop/Desktop.tsx--><g id="elem_/app/components/Modals/Attachment/Desktop/Desktop.tsx"><rect fill="#F1F1F1" height="36.4883" rx="2.5" ry="2.5" style="stroke:#181818;stroke-width:0.5;" width="438" x="2037" y="220"/><text fill="#000000" font-family="sans-serif" font-size="14" lengthAdjust="spacing" textLength="418" x="2047" y="243.5352">/app/components/Modals/Attachment/Desktop/Desktop.tsx</text></g><!--entity /app/client.js--><g id="elem_/app/client.js"><rect fill="#F1F1F1" height="36.4883" rx="2.5" ry="2.5" style="stroke:#181818;stroke-width:0.5;" width="112" x="7" y="220"/><text fill="#000000" font-family="sans-serif" font-size="14" lengthAdjust="spacing" textLength="92" x="17" y="243.5352">/app/client.js</text></g><!--link /app/Root.js to /app/components/Application/ApplicationMobile.tsx--><g id="link_/app/Root.js_/app/components/Application/ApplicationMobile.tsx"><path d="M286.44,238.25 C305.2,238.25 321.56,238.25 345.14,238.25 " fill="none" id="/app/Root.js-to-/app/components/Application/ApplicationMobile.tsx" style="stroke:#006400;stroke-width:1.0;"/><polygon fill="#006400" points="351.14,238.25,342.14,234.25,346.14,238.25,342.14,242.25,351.14,238.25" style="stroke:#006400;stroke-width:1.0;"/></g><!--link /app/Root.js to /app/components/Application/ApplicationProvider.tsx--><g id="link_/app/Root.js_/app/components/Application/ApplicationProvider.tsx"><path d="M286.3,256.76 C305,262.88 326.29,269.37 346,274.25 C370.68,280.35 391.4393,284.7328 416.9493,289.4328 " fill="none" id="/app/Root.js-to-/app/components/Application/ApplicationProvider.tsx" style="stroke:#000000;stroke-width:1.0;"/><polygon fill="#000000" points="422.85,290.52,414.7237,284.9555,417.9328,289.614,413.2742,292.8231,422.85,290.52" style="stroke:#000000;stroke-width:1.0;"/></g><!--link /app/Root.js to /app/components/Application/PassedToProps.tsx--><g id="link_/app/Root.js_/app/components/Application/PassedToProps.tsx"><path d="M247.19,256.79 C266.36,281.3 303.66,323.85 346,345.25 C358.98,351.8 367.2295,355.4046 381.5695,359.7646 " fill="none" id="/app/Root.js-to-/app/components/Application/PassedToProps.tsx" style="stroke:#0000FF;stroke-width:1.0;"/><polygon fill="#0000FF" points="387.31,361.51,379.8628,355.0649,382.5262,360.0555,377.5356,362.719,387.31,361.51" style="stroke:#0000FF;stroke-width:1.0;"/></g><!--link /app/Root.js to /app/components/Portal/index.tsx--><g id="link_/app/Root.js_/app/components/Portal/index.tsx"><path d="M281.76,219.5 C301.38,212.76 324.47,205.91 346,202.25 C756.64,132.33 1246.6284,146.2529 1478.1184,158.5029 " fill="none" id="/app/Root.js-to-/app/components/Portal/index.tsx" style="stroke:#8A2BE2;stroke-width:1.0;"/><polygon fill="#8A2BE2" points="1484.11,158.82,1475.334,154.35,1479.117,158.5558,1474.9112,162.3388,1484.11,158.82" style="stroke:#8A2BE2;stroke-width:1.0;"/></g><!--link /app/Root.js to /app/components/Application/Application.tsx--><g id="link_/app/Root.js_/app/components/Application/Application.tsx"><path d="M249.45,219.84 C269.67,197.73 306.64,161.13 346,141.25 C368.52,129.87 388.118,122.8203 413.038,116.4303 " fill="none" id="/app/Root.js-to-/app/components/Application/Application.tsx" style="stroke:#A52A2A;stroke-width:1.0;"/><polygon fill="#A52A2A" points="418.85,114.94,409.1385,113.3008,414.0067,116.1819,411.1256,121.0501,418.85,114.94" style="stroke:#A52A2A;stroke-width:1.0;"/></g><!--link /app/components/Application/ApplicationMobile.tsx to /app/components/Modals/Modals.tsx--><g id="link_/app/components/Application/ApplicationMobile.tsx_/app/components/Modals/Modals.tsx"><path d="M737.73,238.25 C778.05,238.25 813.84,238.25 851.83,238.25 " fill="none" id="/app/components/Application/ApplicationMobile.tsx-to-/app/components/Modals/Modals.tsx" style="stroke:#006400;stroke-width:1.0;"/><polygon fill="#006400" points="857.83,238.25,848.83,234.25,852.83,238.25,848.83,242.25,857.83,238.25" style="stroke:#006400;stroke-width:1.0;"/></g><!--link /app/components/Application/ApplicationMobile.tsx to /app/components/Thumbnails/ThumbnailsMobile.tsx--><g id="link_/app/components/Application/ApplicationMobile.tsx_/app/components/Thumbnails/ThumbnailsMobile.tsx"><path d="M662.33,256.96 C688.95,261.78 717.03,267.29 743,273.25 C810.48,288.71 881.0098,309.1334 932.4098,324.7734 " fill="none" id="/app/components/Application/ApplicationMobile.tsx-to-/app/components/Thumbnails/ThumbnailsMobile.tsx" style="stroke:#000000;stroke-width:1.0;"/><polygon fill="#000000" points="938.15,326.52,930.7042,320.0733,933.3665,325.0645,928.3754,327.7268,938.15,326.52" style="stroke:#000000;stroke-width:1.0;"/></g><!--link /app/components/Application/Application.tsx to /app/components/Modals/Modals.tsx--><g id="link_/app/components/Application/Application.tsx_/app/components/Modals/Modals.tsx"><path d="M605.12,114.96 C691.88,142.18 846.2553,190.6232 932.8853,217.8132 " fill="none" id="/app/components/Application/Application.tsx-to-/app/components/Modals/Modals.tsx" style="stroke:#006400;stroke-width:1.0;"/><polygon fill="#006400" points="938.61,219.61,931.2209,213.0984,933.8395,218.1127,928.8252,220.7313,938.61,219.61" style="stroke:#006400;stroke-width:1.0;"/></g><!--link /app/components/Application/Application.tsx to /app/components/Thumbnails/Thumbnails.tsx--><g id="link_/app/components/Application/Application.tsx_/app/components/Thumbnails/Thumbnails.tsx"><path d="M664.68,77.55 C730.8,67.17 806.8425,55.2398 872.9525,44.8698 " fill="none" id="/app/components/Application/Application.tsx-to-/app/components/Thumbnails/Thumbnails.tsx" style="stroke:#000000;stroke-width:1.0;"/><polygon fill="#000000" points="878.88,43.94,869.3689,41.383,873.9404,44.7148,870.6086,49.2864,878.88,43.94" style="stroke:#000000;stroke-width:1.0;"/></g><!--link /app/components/Application/Application.tsx to /custom-library/Grid/Grid.tsx--><g id="link_/app/components/Application/Application.tsx_/custom-library/Grid/Grid.tsx"><path d="M714.96,96.25 C772.04,96.25 828.28,96.25 879.82,96.25 " fill="none" id="/app/components/Application/Application.tsx-to-/custom-library/Grid/Grid.tsx" style="stroke:#0000FF;stroke-width:1.0;"/><polygon fill="#0000FF" points="885.82,96.25,876.82,92.25,880.82,96.25,876.82,100.25,885.82,96.25" style="stroke:#0000FF;stroke-width:1.0;"/></g><!--link /app/components/Thumbnails/Thumbnails.tsx to /app/components/Thumbnails/ThumbnailsFooter.tsx--><g id="link_/app/components/Thumbnails/Thumbnails.tsx_/app/components/Thumbnails/ThumbnailsFooter.tsx"><path d="M1172.13,25.25 C1249.24,25.25 1334.54,25.25 1414.15,25.25 " fill="none" id="/app/components/Thumbnails/Thumbnails.tsx-to-/app/components/Thumbnails/ThumbnailsFooter.tsx" style="stroke:#006400;stroke-width:1.0;"/><polygon fill="#006400" points="1420.15,25.25,1411.15,21.25,1415.15,25.25,1411.15,29.25,1420.15,25.25" style="stroke:#006400;stroke-width:1.0;"/></g><!--link /app/components/Thumbnails/ThumbnailsMobile.tsx to /app/components/Thumbnails/ThumbnailsMobileFooter.tsx--><g id="link_/app/components/Thumbnails/ThumbnailsMobile.tsx_/app/components/Thumbnails/ThumbnailsMobileFooter.tsx"><path d="M1195.43,356.37 C1259.62,360.02 1325.3697,363.7583 1391.1197,367.5083 " fill="none" id="/app/components/Thumbnails/ThumbnailsMobile.tsx-to-/app/components/Thumbnails/ThumbnailsMobileFooter.tsx" style="stroke:#006400;stroke-width:1.0;"/><polygon fill="#006400" points="1397.11,367.85,1388.3524,363.344,1392.1181,367.5653,1387.8968,371.331,1397.11,367.85" style="stroke:#006400;stroke-width:1.0;"/></g><!--link /app/components/Modals/Modals.tsx to /app/components/Portal/index.tsx--><g id="link_/app/components/Modals/Modals.tsx_/app/components/Portal/index.tsx"><path d="M1124.7,219.54 C1166.11,213.62 1212.49,207.31 1255,202.25 C1330.76,193.22 1409.7252,185.429 1478.0652,179.149 " fill="none" id="/app/components/Modals/Modals.tsx-to-/app/components/Portal/index.tsx" style="stroke:#006400;stroke-width:1.0;"/><polygon fill="#006400" points="1484.04,178.6,1474.7117,175.4404,1479.061,179.0575,1475.4438,183.4068,1484.04,178.6" style="stroke:#006400;stroke-width:1.0;"/></g><!--link /app/components/Modals/Modals.tsx to /app/components/Modals/PageDeletingWarningModalProvider/PageDeletingWarningModalProvider.js--><g id="link_/app/components/Modals/Modals.tsx_/app/components/Modals/PageDeletingWarningModalProvider/PageDeletingWarningModalProvider.js"><path d="M1124.7,256.95 C1166.11,262.87 1212.49,269.18 1255,274.25 C1303.95,280.08 1350.7589,285.032 1400.4189,289.922 " fill="none" id="/app/components/Modals/Modals.tsx-to-/app/components/Modals/PageDeletingWarningModalProvider/PageDeletingWarningModalProvider.js" style="stroke:#000000;stroke-width:1.0;"/><polygon fill="#000000" points="1406.39,290.51,1397.8253,285.6473,1401.4141,290.02,1397.0413,293.6088,1406.39,290.51" style="stroke:#000000;stroke-width:1.0;"/></g><!--link /app/components/Modals/Modals.tsx to /app/components/Modals/Attachment/Attachment.tsx--><g id="link_/app/components/Modals/Modals.tsx_/app/components/Modals/Attachment/Attachment.tsx"><path d="M1140.32,238.25 C1222.13,238.25 1320.61,238.25 1410.71,238.25 " fill="none" id="/app/components/Modals/Modals.tsx-to-/app/components/Modals/Attachment/Attachment.tsx" style="stroke:#0000FF;stroke-width:1.0;"/><polygon fill="#0000FF" points="1416.71,238.25,1407.71,234.25,1411.71,238.25,1407.71,242.25,1416.71,238.25" style="stroke:#0000FF;stroke-width:1.0;"/></g><!--link /app/components/Modals/Attachment/Attachment.tsx to /app/components/Modals/Attachment/Desktop/Desktop.tsx--><g id="link_/app/components/Modals/Attachment/Attachment.tsx_/app/components/Modals/Attachment/Desktop/Desktop.tsx"><path d="M1815.37,238.25 C1885.6,238.25 1958.98,238.25 2030.78,238.25 " fill="none" id="/app/components/Modals/Attachment/Attachment.tsx-to-/app/components/Modals/Attachment/Desktop/Desktop.tsx" style="stroke:#006400;stroke-width:1.0;"/><polygon fill="#006400" points="2036.78,238.25,2027.78,234.25,2031.78,238.25,2027.78,242.25,2036.78,238.25" style="stroke:#006400;stroke-width:1.0;"/></g><!--link /app/client.js to /app/Root.js--><g id="link_/app/client.js_/app/Root.js"><path d="M119.31,238.25 C138.37,238.25 153.66,238.25 172.52,238.25 " fill="none" id="/app/client.js-to-/app/Root.js" style="stroke:#006400;stroke-width:1.0;"/><polygon fill="#006400" points="178.52,238.25,169.52,234.25,173.52,238.25,169.52,242.25,178.52,238.25" style="stroke:#006400;stroke-width:1.0;"/></g><!--SRC=[jLLDJyCW6BxlLv1vtjeqQZoPrCnvMjAO9HuQ3gnb7Kg103CpnlzkEssiAotGQG-y1Chpl3pl1nHlDT0SI5BiDCY9n9acd4rgYrX1CPW6I8ZWaNCzVrPJy3xvw6ncl1ISOQPL40j1IOPgZFPynJU4uhbMXx48YUIl9CVI6oD1Ik5ypIi0ePnE9rngH0F2Sdmun-MVisbRGmXcwKKONb-68PpTWjHRGcZ4gpyVlBQWVOZBfHMn8wy9woQExkuZ8zQfsARZyLKKHx7FvRwG1aAsuZcYZN4AydgtBpSC4TgUdkRrY61Qig7ZA1nFqfiYbhj1RrtCYcPxfNavesGZaNmB7YJ9ZuE_Vl-it6ZDpg1fQcr89Fz0BAioQZTDZsjOvBNGmP6rDCvXztfoedPf7Gagy09Jh0ahdf1abJdkD7tL-eFBS_hD5MkDibrPBRMc0nfrKz-YIbyNTi3iBP0_rCdBdPv7ooObz8l30giNpKLZxS7e9tRhOyFS1kyfgGcQ94j_Bnf9cpVt4m00]--></g></svg>